<?xml version="1.0" encoding="UTF-8" standalone="no"?>
<svg
   xmlns:dc="http://purl.org/dc/elements/1.1/"
   xmlns:cc="http://creativecommons.org/ns#"
   xmlns:rdf="http://www.w3.org/1999/02/22-rdf-syntax-ns#"
   xmlns:svg="http://www.w3.org/2000/svg"
   xmlns="http://www.w3.org/2000/svg"
   xmlns:xlink="http://www.w3.org/1999/xlink"
   viewBox="0 0 485.33334 456"
   height="456"
   width="485.33334"
   id="svg815"
   version="1.1">
  <metadata
     id="metadata821">
    <rdf:RDF>
      <cc:Work
         rdf:about="">
        <dc:format>image/svg+xml</dc:format>
        <dc:type
           rdf:resource="http://purl.org/dc/dcmitype/StillImage" />
        <dc:title></dc:title>
      </cc:Work>
    </rdf:RDF>
  </metadata>
  <defs
     id="defs819" />
  <path
     id="path825"
     d="m 227.08572,406.70488 c -2.05036,-0.87904 -17.44611,-1.52392 -40,-1.67548 l -36.66667,-0.2464 -20.66667,-7.19408 c -11.36666,-3.95674 -22.46666,-8.0923 -24.66666,-9.19013 -5.976139,-2.98216 -18.524564,-12.41813 -32.000004,-24.06288 -10.68585,-9.23415 -12.65707,-11.67569 -18,-22.29467 -20.23183,-40.21045 -21.86702,-46.5138 -21.94443,-84.59157 -0.0486,-23.90561 0.33555,-29.089 3.06329,-41.33333 6.64274,-29.81812 19.19221,-61.12968 29.27475,-73.04198 2.71685,-3.2099 7.7182,-9.41926 11.11411,-13.79858 6.35682,-8.19767 25.174084,-23.42006 38.995724,-31.54592 4.31022,-2.53404 11.51022,-7.16121 16,-10.28261 10.89754,-7.57625 22.16437,-13.09196 33.49656,-16.39832 5.13333,-1.49774 16.53333,-4.82396 25.33333,-7.3916 21.26574,-6.20485 45.43506,-10.2433 66.84959,-11.16988 16.78256,-0.72617 17.57855,-0.6415 19.0036,2.02124 0.98196,1.83479 1.03184,3.06067 0.14681,3.60765 -0.89042,0.55031 -0.8621,1.72247 0.0844,3.4909 0.78368,1.46432 1.2353,5.77791 1.0036,9.58575 l -0.42133,6.92335 4.66667,-0.12977 c 2.56666,-0.0714 6.71286,-0.61561 9.21377,-1.20942 l 4.54711,-1.07966 -0.84926,11.01281 -0.84924,11.0128 3.63547,-0.96056 c 8.09401,-2.1386 8.13465,-2.08304 6.77155,9.25989 -0.38926,3.23917 0.0997,4.04885 2.86393,4.74224 3.01741,0.75688 3.33333,1.48885 3.33333,7.72312 0,5.64848 0.62744,7.51572 3.48904,10.38316 l 3.48903,3.49619 6.8096,-4.89222 c 7.24531,-5.20524 9.54567,-5.19236 9.54567,0.0534 0,1.79006 0.48686,3.25464 1.08192,3.25464 2.48341,0 6.91808,5.68855 6.91808,8.87412 0,2.941 0.43285,3.30751 3,2.54015 6.18214,-1.84793 19.28676,-2.441 20.22956,-0.91551 0.5103,0.82568 1.84622,1.50124 2.96873,1.50124 1.12251,0 3.18527,1.35 4.58391,3 l 2.54298,3 3.36027,-3.76758 c 2.75508,-3.08906 4.06476,-3.61286 7.27207,-2.90842 3.41933,0.75102 4.66623,0.0719 9.90393,-5.39453 5.64011,-5.88633 6.29015,-6.20009 11.06534,-5.34104 2.79026,0.50196 5.81366,1.87655 6.71868,3.05463 1.5079,1.96292 1.85105,1.9559 4.10498,-0.0839 1.41834,-1.28357 4.67284,-2.22483 7.68787,-2.22345 4.70253,0.003 5.58608,0.57204 8.78539,5.66666 6.84964,10.90747 13.11317,37.1432 13.10665,54.89924 -0.004,9.50551 -3.41249,44.75678 -5.38672,55.70211 -4.31787,23.93873 -17.31217,55.80633 -30.57553,74.98424 -9.46664,13.68813 -39.34734,36.87488 -55.8843,43.36496 -3.95057,1.55043 -9.44427,4.74529 -12.20821,7.09968 -6.16306,5.24983 -29.12016,15.05708 -41.18868,17.59577 -4.89859,1.03044 -14.87211,4.05872 -22.16339,6.7295 -7.29128,2.67078 -15.95687,5.74093 -19.25687,6.82256 -7.67854,2.51677 -28.91957,3.61372 -33.33333,1.72144 z m 25.08589,-14.01224 c 6.92315,-0.33609 13.49922,-1.83596 22.66667,-5.16984 7.10276,-2.58302 18.18857,-5.90645 24.63513,-7.38541 6.44658,-1.47895 13.94658,-3.80357 16.66667,-5.16583 2.72011,-1.36225 6.67441,-2.89317 8.78735,-3.40202 2.11294,-0.50887 7.0668,-3.55234 11.00856,-6.76327 3.94174,-3.21093 10.48202,-7.07844 14.53394,-8.59445 8.29804,-3.10471 31.63875,-18.84442 40.38161,-27.23118 8.59878,-8.24857 13.58842,-15.69112 23.37376,-34.8643 10.96638,-21.48731 16.95364,-43.37418 20.0935,-73.45335 2.63515,-25.24421 2.64327,-35.98383 0.0379,-50.06603 -2.67116,-14.4373 -4.16332,-19.19377 -8.27297,-26.37125 -2.78643,-4.86648 -3.63002,-5.54756 -4.85204,-3.91737 -2.75903,3.68052 -6.13388,4.01317 -7.383,0.72773 -1.45156,-3.81791 -3.82344,-5.79915 -8.28228,-6.91825 -3.0119,-0.75594 -4.22903,-0.012 -8.65922,5.29593 -4.40044,5.27187 -5.77917,6.12224 -9.42225,5.81148 -2.93341,-0.25023 -5.25284,0.56163 -7.41927,2.59688 -3.6624,3.44064 -6.64836,3.77019 -8.95691,0.98856 -2.47493,-2.98205 -9.30346,-6.02767 -13.5146,-6.02767 -2.0617,0 -6.48165,0.92791 -9.8221,2.06203 -7.12343,2.41847 -8.68631,1.81081 -8.68631,-3.37728 0,-2.58793 -1.18555,-4.75201 -3.66667,-6.69303 -2.01666,-1.57768 -3.96829,-4.0635 -4.33693,-5.52405 -0.63324,-2.50885 -0.98247,-2.4294 -6.32179,1.43839 -3.10833,2.25166 -6.43901,4.09394 -7.4015,4.09394 -0.96251,0 -3.71531,-2.02768 -6.11735,-4.50596 -4.06005,-4.18892 -4.30235,-4.93945 -3.44349,-10.66666 0.83556,-5.57196 0.67014,-6.16071 -1.73095,-6.16071 -4.60537,0 -6.25892,-3.36972 -4.51303,-9.197 2.0482,-6.83629 2.07472,-6.77633 -2.27168,-5.13575 -6.79442,2.56462 -8.52468,0.75606 -7.45644,-7.79386 1.67527,-13.4084 2.49743,-12.40099 -8.437,-10.33796 -6.84418,1.29131 -9.6365,-2.11113 -9.6365,-11.74208 v -7.79335 h -15.8273 c -24.28064,0 -48.57622,4.65048 -86.95242,16.64377 -16.60739,5.19013 -21.6268,7.61942 -38.55362,18.65911 -6.96667,4.54367 -14.56954,9.40929 -16.89528,10.81251 -10.8585,6.55133 -26.551584,19.83452 -32.447374,27.4646 -3.57838,4.63101 -8.88074,11.42001 -11.78302,15.08668 -12.1084,15.29749 -26.22677,59.18453 -28.9528,90 -1.01421,11.46474 1.27843,40.5606 4.20245,53.33333 1.09121,4.76667 4.00939,12.86667 6.48484,18 2.47544,5.13333 7.2362,15.13092 10.57945,22.21685 4.89545,10.37578 7.31788,13.87106 12.44519,17.95695 3.5016,2.79039 9.06655,7.52207 12.36655,10.51485 10.091755,9.15224 22.708064,16.9408 32.589924,20.11911 5.17554,1.6646 13.61007,4.67109 18.74341,6.68109 7.9719,3.12146 12.15342,3.79404 28.66666,4.61094 17.25354,0.8535 56.86962,0.44822 83.75256,-0.85682 z M 293.08572,294.783 c -0.45323,-0.73333 -2.01864,-1.33333 -3.47869,-1.33333 -1.46006,0 -11.17464,-2.37447 -21.58798,-5.2766 -13.00692,-3.62496 -20.60274,-5.08413 -24.26666,-4.66172 -34.74872,4.00621 -47.26114,4.60239 -67.25306,3.20439 -13.10454,-0.91639 -25.16729,-2.5992 -32.74694,-4.56836 -6.6,-1.71466 -16.20001,-3.81172 -21.33334,-4.66015 -14.6617,-2.42327 -42.531474,-15.16119 -47.308464,-21.62241 -1.7533,-2.37147 -3.99659,-3.74848 -6.10663,-3.74848 -1.88313,0 -3.7066,-0.96768 -4.18814,-2.22256 -0.46908,-1.22242 -2.65878,-3.83615 -4.866,-5.8083 -3.78208,-3.37929 -3.91421,-3.82446 -2.29521,-7.73309 0.94485,-2.28105 2.73724,-4.47091 3.9831,-4.86632 3.31405,-1.05184 14.50997,1.31669 17.16273,3.63084 2.84897,2.48531 12.518,4.59048 25.854614,5.62913 9.88562,0.76991 10.35073,0.67346 13.58792,-2.81772 3.81151,-4.11053 3.29477,-6.20321 -3.24598,-13.14532 -2.07281,-2.2 -5.66043,-7.6 -7.9725,-12 -3.85741,-7.34086 -13.374604,-18 -16.071614,-18 -1.96264,0 -13.20049,5.82058 -13.20049,6.83712 0,2.11171 -4.36243,5.16288 -7.38166,5.16288 -6.49703,0 -7.61075,-11.06593 -1.51567,-15.05958 6.72751,-4.40804 22.42111,-8.94042 30.956655,-8.94042 5.072049,0 13.062809,-1.30046 19.587189,-3.18774 6.06108,-1.75327 17.92015,-4.18304 26.35349,-5.3995 8.43333,-1.21645 18.98248,-2.78196 23.44254,-3.47892 4.46008,-0.69694 12.61708,-1.26717 18.1267,-1.26717 8.41894,0 10.41381,-0.43796 12.50128,-2.74459 2.80081,-3.09486 22.02681,-14.98461 28.82057,-17.82322 8.57865,-3.58439 38.78316,-8.87582 43.10891,-7.5521 2.96277,0.90663 3.28137,1.25375 1.22865,1.33864 -3.00604,0.12427 -2.99836,-0.0187 -1.06056,19.74136 0.91959,9.37722 0.43529,9.02967 14.49857,10.40491 9.34734,0.91407 27.81827,7.09245 51.33334,17.17061 6.23333,2.67151 13.49282,5.2061 16.1322,5.63242 6.22686,1.0058 12.04798,-1.99335 15.6202,-8.0478 3.0493,-5.1682 8.93401,-9.77779 25.29416,-19.81336 7.86773,-4.8262 11.87119,-8.24338 13.91219,-11.87484 1.57609,-2.80428 3.62694,-5.0987 4.55744,-5.0987 2.68622,0 4.66741,8.84619 5.4408,24.29362 0.8035,16.04933 -0.8235,32.2056 -5.8113,57.70638 -2.49957,12.77942 -3.23798,20.09918 -2.81058,27.86082 0.49834,9.04997 0.32838,10.18377 -1.21103,8.07849 -1.64548,-2.25032 -1.79075,-2.12547 -1.79075,1.53919 0,2.19349 -0.72,4.70817 -1.6,5.58817 -1.93752,1.93752 -6.4,2.12345 -6.4,0.26667 0,-0.73334 -0.91578,-1.33334 -2.03509,-1.33334 -2.86961,0 -13.01448,-10.48338 -15.16076,-15.66666 -1.10172,-2.66068 -2.73789,-4.33334 -4.23883,-4.33334 -1.74163,0 -2.69816,-1.35217 -3.32673,-4.7028 -0.91648,-4.88525 -5.90526,-9.374 -5.90526,-5.31337 0,1.83409 -0.35168,1.85277 -3,0.15936 -4.59397,-2.93752 -14.33742,-0.73471 -31.81345,7.19243 -8.3526,3.78876 -16.13195,7.1808 -17.28743,7.53789 -2.08885,0.64555 -5.5067,11.9848 -7.33372,24.33076 -0.56036,3.78659 -2.0675,6.98183 -4.24513,9 -3.43755,3.18581 -10.15477,4.22088 -11.6536,1.79573 z M 406.6954,251.79855 c -0.31892,-1.65855 -0.59197,-0.61555 -0.60677,2.31779 -0.0148,2.93333 0.24615,4.29033 0.57987,3.01554 0.33372,-1.27478 0.34582,-3.67478 0.0269,-5.33333 z m -223.78525,-8.38496 c 3.34086,-3.12771 0.46014,-4.61341 -4.73576,-2.44243 -6.97107,2.9127 -13.49071,1.45647 -14.53519,-3.24656 -0.44073,-1.98454 -1.0744,-4.62172 -1.40815,-5.8604 -0.95664,-3.55045 2.43867,-4.79728 17.188,-6.31184 0.55,-0.0565 1,-0.75389 1,-1.5498 0,-0.93804 -3.04969,-1.28982 -8.66946,-1 l -8.66947,0.44711 0.003,-4.83333 c 0.003,-4.34583 0.42306,-4.91739 4.16946,-5.66667 2.29167,-0.45833 6.54167,-0.83333 9.44444,-0.83333 3.63474,0 5.10186,-0.51886 4.71267,-1.66667 -0.39577,-1.16724 -3.92508,-1.63748 -11.77777,-1.56927 l -11.21267,0.0973 0.41228,13.23593 c 0.53879,17.29768 1.88612,21.52683 7.35371,23.08259 5.15865,1.46785 14.23788,0.44581 16.7251,-1.88274 z m 12.51248,-6.69645 c 0.37604,-3.33623 0.9405,-6.32266 1.25436,-6.63652 0.66898,-0.66899 6.03149,-1.72324 9.48742,-1.8652 1.32684,-0.0545 2.02354,-0.72766 1.54855,-1.49622 -0.47492,-0.76842 -1.86032,-1.29933 -3.07869,-1.1798 -5.1817,0.50839 -6.88188,-0.18316 -6.88188,-2.79922 0,-4.32784 3.68706,-11.95718 5.77861,-11.95718 2.97705,0 6.18847,5.98466 7.70797,14.36423 1.33998,7.38957 4.668,14.59229 6.08682,13.17348 1.07302,-1.07303 -3.55448,-18.26705 -6.43888,-23.92437 -2.96744,-5.82018 -8.16904,-8.87538 -11.51614,-6.76408 -1.19598,0.75441 -2.97141,4.62194 -3.9454,8.59453 -0.97398,3.97259 -2.13374,8.12288 -2.57724,9.22288 -0.4435,1.1 -0.75652,5 -0.69558,8.66667 0.14818,8.91844 0.1068,8.66666 1.42644,8.66666 0.63796,0 1.4676,-2.72964 1.84364,-6.06586 z m 129.32976,1.99576 c 2.84656,-0.79054 5,-2.22296 5,-3.3259 0,-2.04553 -1.5971,-2.56245 -3.14244,-1.0171 -0.50614,0.50612 -3.55462,1.14101 -6.77443,1.41088 -5.14408,0.43114 -5.97951,0.11733 -6.88721,-2.5869 -1.98335,-5.90874 -1.76036,-6.1609 6.2723,-7.0932 5.77776,-0.67058 7.86511,-1.4549 7.86511,-2.95533 0,-1.62271 -1.16464,-1.90011 -5.66667,-1.34972 -3.11666,0.38103 -6.71666,1.12325 -8,1.64939 -1.8009,0.73833 -2.33333,0.29385 -2.33333,-1.94794 0,-4.18613 3.18587,-6.76468 8.60989,-6.96858 3.13603,-0.11787 4.72344,-0.8217 4.72344,-2.09418 0,-1.49809 -1.38296,-1.76024 -6.33333,-1.20052 -3.48333,0.39386 -6.48333,0.75355 -6.66667,0.79932 -0.18333,0.0457 -0.33333,0.98322 -0.33333,2.08322 0,1.1 -0.53323,2 -1.18495,2 -2.11557,0 -3.01617,9.34633 -1.38914,14.41637 3.01481,9.39457 6.16128,10.9794 16.24076,8.18019 z m -52.19795,-9.79662 -0.33367,-9.20006 4.87976,5.17406 4.87978,5.17407 5.84314,-6.18432 5.84315,-6.18433 1.54496,7.8529 c 1.58932,8.07832 4.25983,13.29319 5.94461,11.60839 0.52534,-0.52533 0.30103,-2.62439 -0.49845,-4.66457 -0.79949,-2.04018 -2.15832,-7.45942 -3.01961,-12.04275 -0.98151,-5.22303 -2.22296,-8.33333 -3.32616,-8.33333 -0.9681,0 -4.0171,2.7 -6.77555,6 -2.75845,3.3 -5.63832,5.9962 -6.39969,5.99157 -1.32152,-0.008 -5.50604,-6.03519 -7.63124,-10.99157 -1.52619,-3.55939 -3.74671,-2.78134 -3.80526,1.33333 -0.0287,2.01667 -0.40452,8.37527 -0.83513,14.13021 -0.7176,9.59008 -0.58236,10.42484 1.62004,10 2.07827,-0.4009 2.35791,-1.70681 2.06932,-9.6636 z m -35.58587,6.20006 c -0.588,-1.28334 -1.3034,-6.08334 -1.58974,-10.66667 l -0.52064,-8.33333 h 6.27702 c 5.6309,0 6.0928,-0.22199 4.48727,-2.15654 -1.45008,-1.74724 -3.65788,-2.03664 -11.63288,-1.52482 -6.22364,0.3994 -10.25095,1.29156 -10.95219,2.4262 -1.47612,2.3884 -0.0417,4.54517 1.7988,2.70466 0.79723,-0.79722 2.67951,-1.44405 4.18284,-1.43738 2.41856,0.0107 2.7643,0.92825 3.00218,7.96716 0.14786,4.37526 0.91898,9.16981 1.71358,10.65454 1.79314,3.3505 4.75482,3.68587 3.23376,0.36618 z m -92.08942,-7.72418 c -0.43424,-1.13162 -1.07549,-1.77154 -1.425,-1.42204 -0.3495,0.34951 -0.23997,1.27539 0.24341,2.05751 1.31473,2.12728 2.08317,1.71401 1.18159,-0.63547 z m -21.41253,-5.96326 c -0.66088,-2.52719 -3.04757,-5.11439 -3.04757,-3.3036 0,1.13378 2.63934,5.99104 3.25542,5.99104 0.27221,0 0.17868,-1.20935 -0.20785,-2.68744 z m 216.59133,-3.45146 c -0.44307,-0.44305 -1.59307,-0.49041 -2.55556,-0.1052 -1.06364,0.42563 -0.74771,0.74158 0.80556,0.80555 1.40554,0.0579 2.19305,-0.25724 1.75,-0.70029 z m -96.70556,-11.4611 c -1.24444,-1.24444 -1.95556,-1.24444 -3.2,0 -1.24444,1.24444 -0.8889,1.6 1.6,1.6 2.48889,0 2.84444,-0.35556 1.6,-1.6 z M 416.28615,183.783 c -0.0848,-9.57444 -0.51904,-13.79432 -1.20043,-11.66666 -1.82024,5.68372 -1.1584,26.66666 0.84112,26.66666 0.27072,0 0.4324,-6.75 0.35931,-15 z m -83.9782,6.51394 c -0.30556,-0.26734 -2.05556,-1.20043 -3.8889,-2.07355 -3.14302,-1.49687 -3.18557,-1.46911 -0.74516,0.48605 2.124,1.70168 6.46382,3.18838 4.63406,1.5875 z m -30.21959,-8.8626 c -6.21891,-2.21046 -21.76504,-5.01755 -18.29968,-3.30428 2.48323,1.2277 19.90959,5.62325 22.63037,5.70818 1.46667,0.0457 -0.48214,-1.03597 -4.33069,-2.4039 z M 190.97461,171.26306 c 0.30555,-0.26403 -3.10904,-0.48006 -7.58798,-0.48006 -4.47894,0 -8.51072,0.59412 -8.95951,1.32027 -0.75024,1.21393 15.10176,0.40903 16.54749,-0.84021 z m 10.77778,1.6626 c 0,-0.28822 -0.9,-0.86938 -2,-1.2915 -1.1,-0.4221 -2,-0.18629 -2,0.52402 0,0.71032 0.9,1.29149 2,1.29149 1.1,0 2,-0.23581 2,-0.52401 z M 415.96876,163.783 c -0.36988,-0.91666 -0.67252,-0.16666 -0.67252,1.66667 0,1.83333 0.30264,2.58333 0.67252,1.66667 0.36988,-0.91667 0.36988,-2.41667 0,-3.33334 z m -145.33333,-2.66666 c -0.36988,-0.91667 -0.67252,-0.16667 -0.67252,1.66666 0,1.83334 0.30264,2.58334 0.67252,1.66667 0.36988,-0.91667 0.36988,-2.41667 0,-3.33333 z m 143.11696,-1 c 0,-1.46667 -0.53581,-2.66667 -1.19068,-2.66667 -1.49872,0 -2.89672,3.46816 -1.82856,4.53631 1.60501,1.60502 3.01924,0.72928 3.01924,-1.86964 z M 241.08572,148.89388 c 2.2,-0.41517 6.31251,-1.02248 9.13891,-1.34956 5.86176,-0.67834 8.2642,-2.11828 3.41665,-2.04781 -4.53011,0.0659 -19.84349,3.4522 -20.96085,4.6352 -0.51043,0.54041 0.27196,0.65283 1.73862,0.2498 1.46667,-0.40301 4.46667,-1.07244 6.66667,-1.48763 z m 27.33333,-2.77754 c 0,-1.11111 -1.18518,-2 -2.66666,-2 -3.28452,0 -3.52754,2.24616 -0.33334,3.08089 1.28334,0.33537 2.48334,0.67937 2.66667,0.76444 0.18333,0.0851 0.33333,-0.74533 0.33333,-1.84533 z m 113.33334,-45.11111 c 0,-1.23529 1.03628,-2.21316 2.33333,-2.20181 1.33158,0.012 1.76091,0.44764 1,1.01552 -0.73333,0.54729 -1.78333,1.5381 -2.33333,2.2018 -0.55,0.66369 -1,0.2067 -1,-1.01551 z m 80.74617,-11.42691 c -0.57593,-0.93188 -0.38942,-2.35206 0.41446,-3.15594 1.96721,-1.96722 2.71466,-0.88459 1.56868,2.27212 -0.69139,1.90446 -1.2096,2.13542 -1.98314,0.88382 z m -48.6409,-8.90643 c 0.064,-1.55326 0.37992,-1.8692 0.80554,-0.80555 0.38516,0.9625 0.3378,2.1125 -0.1052,2.55555 -0.44305,0.44306 -0.75818,-0.34444 -0.70029,-1.75 z M 363.85217,80.2778 c -0.41312,-0.66846 0.14542,-1.55941 1.2412,-1.9799 1.09579,-0.4205 1.99235,-0.21878 1.99235,0.44826 0,1.8074 -2.36947,2.92975 -3.23355,1.53164 z m -9.43312,-30.82813 c 0.45323,-0.73333 1.08864,-1.33333 1.41203,-1.33333 0.32339,0 0.58797,0.6 0.58797,1.33333 0,0.73334 -0.63541,1.33334 -1.41202,1.33334 -0.77662,0 -1.0412,-0.6 -0.58798,-1.33334 z M 343.08572,9.528362 c 0,-0.690055 0.59313,-1.621218 1.31807,-2.069251 0.75581,-0.467119 0.97933,0.06808 0.52401,1.254644 -0.88639,2.309889 -1.84208,2.732516 -1.84208,0.814607 z"
     style="fill:#000000;stroke-width:1.33333337" />
  <text
     id="text870"
     style="font-style:normal;font-weight:normal;font-size:40px;line-height:1.25;font-family:Sahadeva;letter-spacing:0px;word-spacing:0px;fill:#000000;fill-opacity:1;stroke:none;-inkscape-font-specification:Sahadeva;font-stretch:normal;font-variant:normal;"
     xml:space="preserve"><textPath
       id="textPath872"
       xlink:href="#path862" /></text>
  <text
     transform="rotate(-13.894936)"
     id="text890"
     y="176.69598"
     x="78.417122"
     style="font-style:normal;font-variant:normal;font-weight:normal;font-stretch:normal;font-size:40px;line-height:1.25;font-family:Sahadeva;-inkscape-font-specification:Sahadeva;letter-spacing:0px;word-spacing:0px;fill:#000000;fill-opacity:1;stroke:none;stroke-width:0.75590551;stroke-miterlimit:4;stroke-dasharray:none"
     xml:space="preserve"><tspan
       dy="10.339995 -10.339995"
       style="font-style:normal;font-variant:normal;font-weight:normal;font-stretch:normal;font-size:44px;line-height:2.25;font-family:'Tibetan Machine Uni';-inkscape-font-specification:'Tibetan Machine Uni';fill:#000000;fill-opacity:1;stroke-width:0.75590551;stroke-miterlimit:4;stroke-dasharray:none"
       y="176.69598"
       x="78.417122"
       id="tspan888">Pat's!</tspan></text>
  <flowRoot
     style="fill:black;fill-opacity:1;stroke:none;font-family:sans-serif;font-style:normal;font-weight:normal;font-size:40px;line-height:1.25;letter-spacing:0px;word-spacing:0px"
     id="flowRoot892"
     xml:space="preserve"><flowRegion
       id="flowRegion894"><rect
         y="-216.18506"
         x="-1118.6364"
         height="74.241333"
         width="77.251122"
         id="rect896" /></flowRegion><flowPara
       id="flowPara898"></flowPara></flowRoot>  <text
     id="text1253"
     y="368.21234"
     x="132.17206"
     style="font-style:normal;font-weight:normal;font-size:40px;line-height:1.25;font-family:sans-serif;letter-spacing:0px;word-spacing:0px;fill:#000000;fill-opacity:1;stroke:none"
     xml:space="preserve"><tspan
       style="font-style:normal;font-variant:normal;font-weight:normal;font-stretch:normal;font-size:32px;font-family:'Tibetan Machine Uni';-inkscape-font-specification:'Tibetan Machine Uni';letter-spacing:4.22999859px"
       y="368.21234"
       x="132.17206"
       id="tspan1251">est. 2020</tspan></text>
</svg>
